<svg xmlns="http://www.w3.org/2000/svg" viewBox="0 0 160 160" width="160" height="160" role="img" aria-label="Helaman"><title>Helaman</title><circle cx="80" cy="80" r="80" fill="#f0e3c8"/><circle cx="80" cy="80" r="74" fill="none" stroke="#ffffff" stroke-opacity="0.35" stroke-width="3"/><rect x="129" y="48" width="7" height="112" rx="3.5" fill="#9a6b3c"/><circle cx="132.5" cy="45" r="8" fill="#b98b5e"/><circle cx="132.5" cy="45" r="3.4" fill="#8a5a2b"/><rect x="128" y="86" width="9" height="5" fill="#c9a227"/><path d="M26,160 L26,136 C26,122 42,113 80,113 C118,113 134,122 134,136 L134,160 Z" fill="#a8bfc9"/><path d="M80,116 L80,160" stroke="#879ca6" stroke-width="2" opacity="0.4"/><path d="M58,115 C68,127 92,127 102,115 C97,110 89,108 80,108 C71,108 63,110 58,115 Z" fill="#dbe8ee"/><path d="M26,160 L26,136 C26,124 36,117 52,114 L46,160 Z" fill="#879ca6" opacity="0.25"/><rect x="70" y="100" width="20" height="20" fill="#dbaa84"/><circle cx="45" cy="79" r="8.5" fill="#dbaa84"/><circle cx="115" cy="79" r="8.5" fill="#dbaa84"/><ellipse cx="80" cy="72" rx="33" ry="31" fill="#f2ceac"/><path d="M47,68 C45,42 60,30 80,30 C100,30 115,42 113,68 C108,54 98,47 80,47 C62,47 52,54 47,68 Z" fill="#8d949c"/><path d="M48,62 C42,90 44,112 52,128 L64,122 C56,104 54,84 57,64 Z" fill="#8d949c"/><path d="M112,62 C118,90 116,112 108,128 L96,122 C104,104 106,84 103,64 Z" fill="#8d949c"/><path d="M50,74 C52,102 64,117 80,117 C96,117 108,102 110,74 C106,94 96,104 80,104 C64,104 54,94 50,74 Z" fill="#8d949c"/><path d="M67,88 Q80,83 93,88 Q86,95 80,95 Q74,95 67,88 Z" fill="#8d949c"/><ellipse cx="68" cy="74" rx="9.5" ry="10.5" fill="#fffdf7"/><circle cx="68.6" cy="75" r="5.4" fill="#3a352f"/><circle cx="66.2" cy="72.2" r="2" fill="#ffffff"/><ellipse cx="92" cy="74" rx="9.5" ry="10.5" fill="#fffdf7"/><circle cx="92.6" cy="75" r="5.4" fill="#3a352f"/><circle cx="90.2" cy="72.2" r="2" fill="#ffffff"/><path d="M58,62 Q68,56 77,60" stroke="#8d949c" stroke-width="3.2" fill="none" stroke-linecap="round"/><path d="M83,60 Q92,56 102,62" stroke="#8d949c" stroke-width="3.2" fill="none" stroke-linecap="round"/><path d="M80,80 q4,6 -2,7" stroke="#dbaa84" stroke-width="2.6" fill="none" stroke-linecap="round"/><path d="M68,90 Q80,101 92,90" stroke="#8a4038" stroke-width="3.2" fill="none" stroke-linecap="round"/><ellipse cx="56" cy="87" rx="7.5" ry="4.4" fill="#e88f74" opacity="0.4"/><ellipse cx="104" cy="87" rx="7.5" ry="4.4" fill="#e88f74" opacity="0.4"/></svg>